<svg width="40" height="40" viewBox="0 0 40 40" fill="none" xmlns="http://www.w3.org/2000/svg">
<path d="M30 13.3334H31.6667C33.4348 13.3334 35.1305 14.0358 36.3807 15.286C37.631 16.5362 38.3333 18.2319 38.3333 20C38.3333 21.7682 37.631 23.4638 36.3807 24.7141C35.1305 25.9643 33.4348 26.6667 31.6667 26.6667H30" stroke="#F25D27" stroke-width="3" stroke-linecap="round" stroke-linejoin="round"/>
<path d="M3.3335 13.3334H30.0002V28.3334C30.0002 30.1015 29.2978 31.7972 28.0475 33.0474C26.7973 34.2977 25.1016 35 23.3335 35H10.0002C8.23205 35 6.53636 34.2977 5.28612 33.0474C4.03588 31.7972 3.3335 30.1015 3.3335 28.3334V13.3334Z" stroke="#F25D27" stroke-width="3" stroke-linecap="round" stroke-linejoin="round"/>
<path d="M10 1.66663V6.66663" stroke="#F25D27" stroke-width="3" stroke-linecap="round" stroke-linejoin="round"/>
<path d="M16.6665 1.66663V6.66663" stroke="#F25D27" stroke-width="3" stroke-linecap="round" stroke-linejoin="round"/>
<path d="M23.3335 1.66663V6.66663" stroke="#F25D27" stroke-width="3" stroke-linecap="round" stroke-linejoin="round"/>
</svg>
