<svg width="20" height="20" viewBox="0 0 20 20" fill="none" xmlns="http://www.w3.org/2000/svg">
<g clip-path="url(#clip0)">
<path d="M10.0025 0.00012207H9.9975C4.48375 0.00012207 0 4.48512 0 10.0001C0 12.1876 0.705 14.2151 1.90375 15.8614L0.6575 19.5764L4.50125 18.3476C6.0825 19.3951 7.96875 20.0001 10.0025 20.0001C15.5162 20.0001 20 15.5139 20 10.0001C20 4.48637 15.5162 0.00012207 10.0025 0.00012207Z" fill="#449C47"/>
<path d="M15.8212 14.1214C15.5799 14.8026 14.6224 15.3676 13.8587 15.5326C13.3362 15.6439 12.6537 15.7326 10.3562 14.7801C7.41744 13.5626 5.52494 10.5764 5.37744 10.3826C5.23619 10.1889 4.18994 8.80135 4.18994 7.36635C4.18994 5.93135 4.91869 5.2326 5.21244 4.9326C5.45369 4.68635 5.85244 4.57385 6.23494 4.57385C6.35869 4.57385 6.46994 4.5801 6.56994 4.5851C6.86369 4.5976 7.01119 4.6151 7.20494 5.07885C7.44619 5.6601 8.03369 7.0951 8.10369 7.2426C8.17494 7.3901 8.24619 7.5901 8.14619 7.78385C8.05244 7.98385 7.96994 8.0726 7.82244 8.2426C7.67494 8.4126 7.53494 8.5426 7.38744 8.7251C7.25244 8.88385 7.09994 9.05385 7.26994 9.3476C7.43994 9.6351 8.02744 10.5939 8.89244 11.3639C10.0087 12.3576 10.9137 12.6751 11.2374 12.8101C11.4787 12.9101 11.7662 12.8864 11.9424 12.6989C12.1662 12.4576 12.4424 12.0576 12.7237 11.6639C12.9237 11.3814 13.1762 11.3464 13.4412 11.4464C13.7112 11.5401 15.1399 12.2464 15.4337 12.3926C15.7274 12.5401 15.9212 12.6101 15.9924 12.7339C16.0624 12.8576 16.0624 13.4389 15.8212 14.1214Z" fill="white"/>
</g>
<defs>
<clipPath id="clip0">
<rect width="20" height="20" fill="white" transform="translate(0 0.00012207)"/>
</clipPath>
</defs>
</svg>
